<svg xmlns="http://www.w3.org/2000/svg" xmlns:xlink="http://www.w3.org/1999/xlink" width="45.79" height="45.791" viewBox="0 0 45.79 45.791">
  <defs>
    <clipPath id="clip-path">
      <rect id="Rectangle_1121" data-name="Rectangle 1121" width="45.79" height="45.791" fill="#1f0e59"/>
    </clipPath>
  </defs>
  <g id="Group_2811" data-name="Group 2811" transform="translate(0)">
    <g id="Group_2810" data-name="Group 2810" transform="translate(0)" clip-path="url(#clip-path)">
      <path id="Path_8858" data-name="Path 8858" d="M22.911,0A22.9,22.9,0,1,1,0,22.867,22.9,22.9,0,0,1,22.911,0M8.792,22.894H8.753c0,1.724-.012,3.449.006,5.173a13.982,13.982,0,0,0,.132,1.96,7.335,7.335,0,0,0,4.492,6.107,10.041,10.041,0,0,0,3.926.758q5.356.022,10.711,0a14.467,14.467,0,0,0,2.322-.177,7.289,7.289,0,0,0,6.063-4.738,10.1,10.1,0,0,0,.631-3.63c0-3.525.008-7.049,0-10.574a13.663,13.663,0,0,0-.133-2.005,7.33,7.33,0,0,0-4.745-6.211A9.953,9.953,0,0,0,28.572,8.9Q22.9,8.876,17.22,8.9a9.647,9.647,0,0,0-4.085.866,7.4,7.4,0,0,0-4.318,6.766c-.131,2.112-.025,4.239-.025,6.36" transform="translate(0 0)" fill="#1f0e59"/>
      <path id="Path_8859" data-name="Path 8859" d="M104.394,94.2c1.892,0,3.785-.018,5.677.01a8.525,8.525,0,0,1,1.811.224,4.979,4.979,0,0,1,3.963,4.473,13.517,13.517,0,0,1,.092,1.551c.008,3.5.03,6.991-.014,10.486a8.3,8.3,0,0,1-.408,2.509,4.657,4.657,0,0,1-4.426,3.335c-2.663.151-5.337.134-8.007.145-1.723.007-3.455.027-5.168-.123a5.077,5.077,0,0,1-5.019-5.349c-.085-3.951-.052-7.906.007-11.858a6.68,6.68,0,0,1,.581-2.422A4.649,4.649,0,0,1,97.715,94.3c1.854-.136,3.72-.108,5.58-.149.366-.008.732,0,1.1,0V94.2m7.45,11.393a7.443,7.443,0,1,0-7.439,7.4,7.424,7.424,0,0,0,7.439-7.4m.038-5.969A1.481,1.481,0,1,0,110.4,98.15a1.481,1.481,0,0,0,1.483,1.473" transform="translate(-81.506 -82.654)" fill="#1f0e59"/>
      <path id="Path_8860" data-name="Path 8860" d="M157.779,152.972a4.8,4.8,0,1,1-4.817-4.783,4.789,4.789,0,0,1,4.817,4.783" transform="translate(-130.083 -130.093)" fill="#1f0e59"/>
    </g>
  </g>
</svg>
