<?xml version="1.0" encoding="utf-8"?>
<!-- Generator: Adobe Illustrator 25.4.1, SVG Export Plug-In . SVG Version: 6.00 Build 0)  -->
<svg version="1.1" id="Camada_1" xmlns="http://www.w3.org/2000/svg" xmlns:xlink="http://www.w3.org/1999/xlink" x="0px" y="0px"
	 viewBox="0 0 39 38.6" style="enable-background:new 0 0 39 38.6;" xml:space="preserve">
<style type="text/css">
	.st0{fill:#FFFFFF;}
</style>
<g>
	<path class="st0" d="M39,24.4c0-0.2-0.1-0.4-0.1-0.6c-0.1-0.5-0.2-0.9-0.3-1.4c-1-4.2-4.1-7.7-8.1-9.2h0.4c1,0,1.9-0.4,2.6-1
		c0.8-0.7,1.3-1.7,1.3-2.8c0-2.2-1.7-3.9-3.8-4c-0.7,0-1.4,0-2.4,0c-1,0-1.9,0-2.9,0c0.1-0.2,0.2-0.5,0.2-0.8
		c0.2-1.1-0.1-2.2-0.8-3.1C24.5,0.6,23.4,0,22.3,0c-0.1,0-0.3,0-0.4,0H4.2c-2-0.2-3.8,1.2-4.1,3.2l0,0c0,0,0,0,0,0.1l0,0.1v1.1
		l0,0.1c0,0.1,0.1,0.3,0.1,0.4c0.1,0.3,0.2,0.7,0.4,1c0.7,1.2,2,1.9,3.3,1.9c0.7,0,1.4,0,2.2,0h1.6H9c-0.4,0.9-0.4,1.9,0,2.9H8.6
		c-0.3,0-0.5,0-0.7,0c0,0-0.1,0-0.1,0c-2.2,0.1-3.8,1.9-3.7,4.1c0,0.9,0.4,1.8,1.1,2.5c-1.4,1.5-1.4,3.8,0,5.3
		c-1.4,1.5-1.4,3.8,0,5.3l-0.1,0.2c-0.3,0.4-0.5,0.8-0.7,1.3c-0.4,1.2-0.2,2.5,0.5,3.5c0.7,1,1.9,1.7,3.2,1.7c1,0,2.2,0,3.4,0
		c1.5,0,3,0,4.5,0h0.5c0.1,0,0.2,0,0.3,0.1c2.4,2.5,5.6,3.9,9.1,3.9c1.3,0,2.6-0.2,3.8-0.6c2.3-0.6,4.4-1.8,6-3.5
		c1.6-1.8,2.7-3.9,3.2-6.2c0.1-0.4,0.2-0.9,0.2-1.3c0-0.2,0.1-0.4,0.1-0.6l0,0L39,24.4L39,24.4z M23,5c-0.3,0.2-0.7,0.4-1.1,0.4
		c-2.1,0-4.1,0-5.6,0l-5.3,0H6.9c-1.2,0-2.1,0-3,0C3.5,5.4,3,5.1,2.8,4.8C2.5,4.4,2.4,3.9,2.5,3.5c0.2-0.6,0.8-1,1.5-1h11.6
		c2.2,0,4.3,0,6.5,0c0.4,0,0.8,0.2,1.1,0.5C23.7,3.6,23.6,4.5,23,5z M16.5,10.7c-1.5,0-2.7,0-3.8,0c-0.5,0-0.9-0.2-1.2-0.6
		c-0.3-0.4-0.3-0.8-0.2-1.2c0.2-0.6,0.7-1,1.4-1c0.4,0,0.9,0,1.5,0l2.1,0h14.5c0.8-0.1,1.5,0.6,1.5,1.3c0,0.4-0.1,0.8-0.4,1.1
		c-0.3,0.3-0.7,0.5-1.1,0.5c-1.1,0-2.4,0-3.9,0h-5.1H16.5z M8,23.9h2.2l2.6,0l0,0.1c0,0.5-0.1,0.9-0.1,1.3c0,0.4,0,0.9,0,1.3v0.1
		h-0.1c-1.5,0-3.1,0-4.6,0c0,0-0.1,0-0.1,0c-0.8,0-1.5-0.6-1.5-1.4c0-0.4,0.1-0.8,0.4-1C7.2,24,7.6,23.9,8,23.9z M13.4,21.4h-0.6
		c-0.8,0-1.7,0-2.5,0c-0.9,0-1.7,0-2.4,0c-0.7,0-1.3-0.7-1.3-1.4c0-0.7,0.5-1.4,1.3-1.4c1,0,2.1,0,3.4,0v0c0.7,0,1.5,0,2.2,0h1.4
		C14.2,19.4,13.7,20.4,13.4,21.4z M16.9,15.9C16.8,16,16.7,16,16.6,16c-1.4,0-2.8,0-4,0l-1.2,0c-1,0-2.2,0-3.3,0
		c-0.5,0-0.9-0.2-1.2-0.6c-0.3-0.4-0.3-0.8-0.2-1.2c0.2-0.6,0.7-1,1.4-1c0.4,0,0.8,0,1.2,0H11h10.3C19.6,13.8,18.1,14.7,16.9,15.9z
		 M6.9,29.6c0.3-0.3,0.7-0.4,1.1-0.4c0.8,0,1.5,0,2.3,0l3,0l1.3,2.9h-0.3c-2.1,0-4.2,0-6.2,0c0,0-0.1,0-0.1,0
		c-0.8,0-1.4-0.6-1.4-1.4C6.5,30.3,6.6,29.9,6.9,29.6z M15.2,25.4c0-5.9,4.8-10.6,10.6-10.6h0c5.9,0,10.6,4.8,10.6,10.7
		c0,5.8-4.8,10.6-10.6,10.6h0C20,36.1,15.2,31.3,15.2,25.4z"/>
	<path class="st0" d="M25,26.5c0.2,0,0.4,0.1,0.7,0.1c0.2,0,0.3,0,0.5,0.1c0.3,0,0.6,0.2,0.7,0.5c0.1,0.2,0.1,0.4,0.1,0.6
		c-0.2,0.4-0.6,0.7-1.1,0.7c-0.1,0-0.1,0-0.2,0c-0.5,0-0.9-0.4-0.9-0.9c0-0.7-0.6-1.2-1.2-1.2h0c-0.3,0-0.6,0.1-0.9,0.4
		c-0.2,0.3-0.4,0.6-0.3,1c0,0.8,0.3,1.5,0.9,2.1c0.4,0.5,0.9,0.8,1.5,1c0.1,0.8,0.6,1.2,1.2,1.2c0.5,0,1-0.2,1.2-1.2
		c1.1-0.3,2-1.2,2.3-2.4c0.5-1.8-0.6-3.6-2.4-4.1c-0.3-0.1-0.6-0.1-0.9-0.1c-0.1,0-0.3,0-0.4,0c-0.4,0-0.8-0.3-0.9-0.7
		c-0.1-0.3,0-0.6,0.3-0.8c0.2-0.2,0.5-0.3,0.8-0.3c0.2,0,0.4,0,0.5,0.1c0.4,0.1,0.7,0.5,0.7,0.9c0,0.7,0.6,1.2,1.2,1.2
		c0.1,0,0.1,0,0.2,0c0,0,0,0,0,0c0.7-0.1,1.1-0.8,1-1.5c-0.1-1.4-1-2.5-2.3-2.9l0,0c0-0.3-0.1-0.7-0.3-0.9c0,0,0,0,0,0
		c-0.5-0.5-1.3-0.5-1.7,0c-0.2,0.2-0.4,0.6-0.4,0.9c-0.7,0.2-1.3,0.7-1.8,1.3c-0.4,0.6-0.6,1.3-0.6,2.1C22.4,25,23.5,26.2,25,26.5z"
		/>
	<path class="st0" d="M29.2,18.5c0.1,0,0.1,0.1,0.2,0.1l0.1,0c3.7,2,5.1,6.5,3.3,10.2c-0.1,0.2-0.2,0.5-0.2,0.7
		c0,0.6,0.4,1.1,0.9,1.2c0.1,0,0.2,0,0.3,0c0.5,0,0.9-0.3,1.1-0.7c0.8-1.5,1.2-3.2,1.2-5v0c-0.1-2.9-1.4-5.6-3.6-7.5
		c-0.6-0.5-1.2-0.9-1.8-1.2l-0.2-0.1c-0.2-0.1-0.4-0.2-0.7-0.2c-0.5,0-0.9,0.3-1.1,0.7C28.3,17.5,28.6,18.2,29.2,18.5z"/>
	<path class="st0" d="M22.7,32.4c-0.1-0.1-0.2-0.1-0.3-0.2l-0.1-0.1c-3.7-2-5.1-6.5-3.3-10.2c0.1-0.3,0.2-0.6,0.2-0.9
		c0-0.6-0.4-1-1-1.1c-0.1,0-0.2,0-0.2,0c-0.5,0-0.9,0.3-1.1,0.7c-0.8,1.5-1.2,3.2-1.2,5v0c0.1,2.9,1.4,5.7,3.7,7.5
		c0.6,0.4,1.2,0.8,1.8,1.2l0.2,0.1c0.2,0.1,0.4,0.2,0.6,0.2c0.4,0,0.8-0.2,1-0.6C23.4,33.5,23.3,32.8,22.7,32.4z"/>
	<path class="st0" d="M27,17.8L27,17.8c0.7,0,1.3-0.5,1.3-1.2c0-0.3-0.1-0.6-0.3-0.9c-0.2-0.2-0.6-0.4-0.9-0.4h0
		c-0.7,0-1.2,0.5-1.3,1.2c0,0.3,0.1,0.6,0.3,0.9C26.3,17.6,26.7,17.8,27,17.8z"/>
	<path class="st0" d="M25.7,33.5c-0.2-0.2-0.6-0.4-0.9-0.4h0c-0.7,0-1.2,0.5-1.3,1.2c0,0.3,0.1,0.6,0.3,0.9c0.2,0.2,0.6,0.4,0.9,0.4
		h0c0.7,0,1.2-0.5,1.3-1.2C26,34,25.9,33.7,25.7,33.5z"/>
</g>
</svg>
