<?xml version="1.0" encoding="utf-8"?>
<!-- Generator: Adobe Illustrator 25.4.1, SVG Export Plug-In . SVG Version: 6.00 Build 0)  -->
<svg version="1.1" id="Camada_1" xmlns="http://www.w3.org/2000/svg" xmlns:xlink="http://www.w3.org/1999/xlink" x="0px" y="0px"
	 viewBox="0 0 36.3 36.6" style="enable-background:new 0 0 36.3 36.6;" xml:space="preserve">
<style type="text/css">
	.st0{fill:#FFFFFF;}
</style>
<g>
	<path class="st0" d="M31.7,6.1c-3-3.4-7.1-5.6-11.6-6C19.4,0,18.7,0,18,0C13.7,0,9.5,1.6,6.3,4.4C0.1,9.7-1.7,18.6,1.8,25.9
		c0.1,0.2,0.1,0.4,0.1,0.6c-0.3,1.2-0.5,2.5-0.8,3.7c-0.3,1.5-0.6,3.1-1,4.7c-0.2,0.6,0.1,1.3,0.6,1.6l0.1,0.1h0.8l0.1,0
		c0.5-0.2,1-0.3,1.5-0.4C3.4,36.1,3.7,36,3.9,36c1-0.3,2.1-0.5,3.1-0.7c1-0.2,2-0.5,3-0.7c0.1,0,0.1,0,0.2,0c0.1,0,0.2,0,0.3,0.1
		c2.3,1.1,4.9,1.7,7.5,1.7c0.3,0,0.7,0,1,0c4.1-0.2,8.1-1.8,11.1-4.5C37.7,25.1,38.4,13.6,31.7,6.1z M6.1,29.8
		c0.2-1.2,0.5-2.4,0.8-3.6c0.1-0.4,0-0.9-0.2-1.3c-0.8-1.3-1.3-2.8-1.6-4.3C4.2,16,5.9,11.2,9.4,8.2c2-1.9,4.7-3,7.4-3.2
		c0.5,0,0.9-0.1,1.4-0.1c3.8,0,7.5,1.6,10,4.5c1.8,2.1,3,4.7,3.2,7.4c0.2,2.3-0.2,4.7-1.2,6.8c-1.4,3-3.8,5.4-6.9,6.7
		c-1.6,0.7-3.3,1.1-5.1,1h0c-0.1,0-0.2,0-0.3,0c-2.1,0-4.2-0.6-6.1-1.6c-0.4-0.2-0.8-0.3-1.3-0.3h0c-0.2,0-0.5,0-0.7,0.1
		c-1,0.3-2,0.5-2.9,0.7L6,30.5L6.1,29.8z"/>
	<path class="st0" d="M8.8,14.9c0.2,1.7,0.9,3.3,2,4.7c1.5,2,3.3,3.8,5.3,5.2c1.8,1.4,4,2.2,6.2,2.4c0.2,0,0.4,0,0.5,0
		c1.3,0.1,2.6-0.4,3.5-1.3c0.5-0.5,1-1.1,1.4-1.7c0.3-0.5,0.4-1.1,0.2-1.7c-0.2-0.5-0.7-0.9-1.2-1.1c-0.8-0.3-1.7-0.5-2.5-0.7
		l-0.9-0.2c-0.2-0.1-0.4-0.1-0.5-0.1c-0.5,0-1,0.2-1.3,0.6c-0.1,0.1-0.2,0.2-0.3,0.3c-0.2,0.2-0.3,0.3-0.5,0.5
		c-0.1,0.2-0.3,0.3-0.6,0.3c-0.2,0-0.3-0.1-0.5-0.1c-0.7-0.3-1.3-0.8-1.9-1.2c-1.3-1-2.5-2.1-3.4-3.4c-0.3-0.3-0.3-0.8,0-1.1
		c0.1-0.1,0.2-0.2,0.3-0.3c0.1-0.2,0.3-0.3,0.4-0.5c0.4-0.5,0.5-1.2,0.2-1.7c-0.1-0.3-0.2-0.5-0.3-0.8c-0.4-0.8-0.7-1.7-1.2-2.6
		c-0.3-0.6-0.9-1-1.6-1c-0.4,0-0.8,0.2-1.2,0.4c-0.4,0.3-0.8,0.7-1.1,1c-0.9,0.9-1.4,2.2-1.4,3.5v0c0,0.1,0,0.2,0,0.2
		C8.8,14.5,8.8,14.7,8.8,14.9z"/>
</g>
</svg>
