<svg xmlns="http://www.w3.org/2000/svg" xmlns:xlink="http://www.w3.org/1999/xlink" width="46" height="46" viewBox="0 0 46 46">
  <defs>
    <clipPath id="clip-path">
      <rect id="Rectangle_1122" data-name="Rectangle 1122" width="46" height="46" fill="#1f0e59"/>
    </clipPath>
  </defs>
  <g id="Group_2813" data-name="Group 2813" transform="translate(0 0.387)">
    <g id="Group_2813-2" data-name="Group 2813" transform="translate(0 -0.387)" clip-path="url(#clip-path)">
      <path id="Path_8861" data-name="Path 8861" d="M21.364,0h2.849c.761.1,1.527.17,2.284.3a22.871,22.871,0,0,1,18.73,18.563c.147.828.235,1.668.35,2.5v2.849a2.493,2.493,0,0,0-.074.343A21.759,21.759,0,0,1,42.39,34.37,22.531,22.531,0,0,1,26.711,45.227c-.826.156-1.666.234-2.5.349H21.364c-.556-.069-1.113-.128-1.668-.208A22.88,22.88,0,0,1,.355,26.758C.2,25.916.117,25.061,0,24.212V21.364c.068-.557.126-1.115.206-1.669A22.472,22.472,0,0,1,6.535,6.848,22.322,22.322,0,0,1,18.863.35C19.692.2,20.53.115,21.364,0m7.473,10.423a.52.52,0,0,0-.141-.047c-1.645.013-3.3-.073-4.933.069a4.473,4.473,0,0,0-4.114,3.227,9.9,9.9,0,0,0-.387,2.4c-.064.928-.015,1.864-.015,2.846H16.674V23.6H19.26v13.17h5.5V23.567h3.7l.475-4.657H24.748c0-.855,0-1.668,0-2.481,0-1.19.34-1.524,1.543-1.525h2.546Z" transform="translate(0 0.424)" fill="#1f0e59"/>
    </g>
  </g>
</svg>
