<svg id="Group_2809" data-name="Group 2809" xmlns="http://www.w3.org/2000/svg" xmlns:xlink="http://www.w3.org/1999/xlink" width="46" height="46" viewBox="0 0 46 46">
  <defs>
    <clipPath id="clip-path">
      <rect id="Rectangle_1120" data-name="Rectangle 1120" width="46" height="46" transform="translate(0 0)" fill="#1f0e59"/>
    </clipPath>
  </defs>
  <g id="Group_2808" data-name="Group 2808" transform="translate(0 0)" clip-path="url(#clip-path)">
    <path id="Path_8857" data-name="Path 8857" d="M21.485,0H24.35a2.546,2.546,0,0,0,.345.073,21.823,21.823,0,0,1,9.953,3.165,22.622,22.622,0,0,1,10.836,15.73c.155.832.236,1.678.352,2.517V24.35c-.037.294-.078.587-.11.882A22.975,22.975,0,0,1,26.909,45.481c-.847.154-1.706.238-2.559.355H21.485c-.559-.069-1.12-.129-1.678-.208A22.474,22.474,0,0,1,8.481,40.7,22.575,22.575,0,0,1,.356,26.911C.2,26.064.117,25.2,0,24.35V21.485c.036-.294.076-.587.108-.881A22.56,22.56,0,0,1,5.713,7.8,22.455,22.455,0,0,1,19.014.346C19.833.2,20.661.114,21.485,0m3.44,34.629c0-1.442,0-2.842,0-4.243.007-1.894,0-3.788.041-5.681a2.876,2.876,0,0,1,1.4-2.371A2.685,2.685,0,0,1,30.55,23.84a7.485,7.485,0,0,1,.238,1.941c.025,2.789.011,5.578.011,8.367v.467h5.56c.007-.147.018-.264.018-.382,0-3.058.007-6.115-.005-9.173a16.045,16.045,0,0,0-.119-1.828c-.39-3.288-2.358-5.364-5.525-5.726A5.553,5.553,0,0,0,25.157,19.9a3.1,3.1,0,0,1-.232.25c0-.691-.017-1.284.007-1.875.013-.331-.088-.437-.427-.433-1.6.017-3.192.007-4.788.009a3.352,3.352,0,0,0-.341.034V34.629Zm-8.684,0c.01-.114.021-.186.021-.258q0-8.078.008-16.156c0-.347-.156-.379-.434-.378-1.581.008-3.163,0-4.744.005-.129,0-.259.019-.39.03V34.633Zm-5.886-21.97a2.9,2.9,0,0,0,3.119,2.9,2.912,2.912,0,1,0,.043-5.806,2.906,2.906,0,0,0-3.162,2.9" transform="translate(0 0.073)" fill="#1f0e59"/>
  </g>
</svg>
