<?xml version="1.0" encoding="utf-8"?>
<!-- Generator: Adobe Illustrator 25.4.1, SVG Export Plug-In . SVG Version: 6.00 Build 0)  -->
<svg version="1.1" id="Camada_1" xmlns="http://www.w3.org/2000/svg" xmlns:xlink="http://www.w3.org/1999/xlink" x="0px" y="0px"
	 viewBox="0 0 38 41.8" style="enable-background:new 0 0 38 41.8;" xml:space="preserve">
<style type="text/css">
	.st0{fill:#FFFFFF;}
</style>
<g>
	<path class="st0" d="M35.5,6.6c-1.8-0.6-3.2-1.9-3.9-3.7C31.2,1.5,30,0.3,28.5,0l-0.1,0H9.5L9.4,0c-0.1,0-0.1,0.1-0.2,0.1
		C9,0.2,8.8,0.2,8.6,0.3C7.7,0.7,7,1.5,6.6,2.4C6,4.4,4.4,6,2.4,6.7C0.9,7.2,0,8.6,0,10.2c0,0.5,0,1,0,1.5c0,1.6,0,3.3,0.1,4.9
		c0.2,4.2,1.4,8.4,3.5,12.1C6.4,34,11,38.4,16.5,41c0.4,0.2,0.8,0.4,1.3,0.5c0.2,0.1,0.4,0.1,0.6,0.2l0.1,0h1.2l0.1,0
		c4.3-1.7,8.2-4.4,11.2-7.9c3-3.6,5.1-7.7,6.2-12.3c0.6-2.3,0.9-4.6,0.8-6.9c0-1.4,0-2.9,0-4.4C38.1,8.6,37.1,7.1,35.5,6.6z
		 M27.7,3.4c0.4,0,0.5,0,0.6,0.4c1,2.7,3.1,4.9,5.9,5.9c0.4,0.2,0.5,0.2,0.5,0.7c0,0.6,0,1.2,0,1.8c0,1.4,0,2.8-0.1,4.2
		c-0.2,4.4-1.6,8.6-4,12.3c-2.7,4.2-6.6,7.5-11.1,9.6c-0.1,0.1-0.3,0.1-0.4,0.1c-0.1,0-0.3,0-0.4-0.1C10.9,34.8,5.3,27.7,3.8,19.3
		c-0.3-1.6-0.5-3.3-0.4-5c0-0.8,0-1.7,0-2.5c0-0.5,0-1,0-1.5c0-0.4,0-0.4,0.4-0.5c2.8-1,5-3.2,6-6c0.1-0.4,0.2-0.4,0.6-0.4h4.2v0
		H27.7z"/>
	<path class="st0" d="M13.5,14.9c0,0.2,0,0.4,0,0.6c-1.6,0.2-2.9,1.5-2.9,3.2c0,2.5-0.1,4.9,0,7.3c0,1.5,0.7,2.8,1.7,3.9
		c1,1,2.4,1.6,3.9,1.7c0.9,0,1.9,0,2.8,0s1.9,0,2.8,0c1.5,0,2.9-0.6,3.9-1.7c1.1-1,1.7-2.4,1.7-3.8c0.1-2.4,0-4.9,0-7.2v-0.1
		c0-1.5-1.1-2.8-2.5-3.1c-0.1,0-0.3-0.1-0.4-0.1v0c0-0.3,0-0.6,0-1c0-0.7,0-1.4,0-2.1c-0.1-2.9-2.4-5.2-5.3-5.3h-0.2c0,0,0,0-0.1,0
		c-3,0-5.5,2.5-5.5,5.5C13.5,13.4,13.5,14.1,13.5,14.9z M19,18.9h4.8c0.1,0,0.2,0,0.2,0c0,0.1,0,0.2,0,0.2v1.1c0,1.7,0,3.5,0,5.3
		c0,0.1,0,0.3,0,0.4c-0.1,1.4-1.3,2.4-2.7,2.2h-0.6c-1.4,0-2.8,0-4.3,0c-0.1,0-0.2,0-0.3,0c-1.3-0.1-2.4-1.2-2.3-2.6
		c0-1.7,0-3.4,0-5.1c0-0.5,0-0.9,0-1.4c0-0.1,0-0.1,0-0.2c0.1,0,0.1,0,0.2,0h2.1L19,18.9L19,18.9z M16.9,15.5c0-0.1,0-0.2,0-0.3
		c0-0.7,0-1.3,0-2c0-0.1,0-0.1,0-0.2c0-0.3,0-0.6,0.1-0.9c0.2-0.9,1.1-1.6,2-1.6c0.1,0,0.1,0,0.2,0c1.1,0.1,1.9,1,1.9,2.1
		c0,0.8,0,1.6,0,2.3c0,0.2,0,0.4,0,0.6L16.9,15.5z"/>
	<path class="st0" d="M17.3,24.7c0,0.9,0.8,1.7,1.7,1.7h0c0,0,0,0,0,0c0.9,0,1.7-0.8,1.7-1.7c0-0.7,0-1.5,0-2.3c0,0,0,0,0,0
		c0-0.9-0.8-1.7-1.7-1.7l0,0c0,0,0,0,0,0c-0.9,0-1.7,0.8-1.7,1.7c0,0.3,0,0.5,0,0.8c0,0.1,0,0.2,0,0.3s0,0.2,0,0.3
		C17.3,24.1,17.3,24.4,17.3,24.7C17.3,24.7,17.3,24.7,17.3,24.7z"/>
</g>
</svg>
