<svg xmlns="http://www.w3.org/2000/svg" width="46.001" height="46.001" viewBox="0 0 46.001 46.001">
  <g id="Group_6123" data-name="Group 6123" transform="translate(-1550 -1087.999)">
    <path id="Subtraction_2" data-name="Subtraction 2" d="M9021-294a22.849,22.849,0,0,1-16.263-6.737A22.851,22.851,0,0,1,8998-317a22.854,22.854,0,0,1,6.736-16.265A22.848,22.848,0,0,1,9021-340a22.855,22.855,0,0,1,16.266,6.737A22.854,22.854,0,0,1,9044-317a22.851,22.851,0,0,1-6.736,16.263A22.855,22.855,0,0,1,9021-294Zm-.109-36.3a12.713,12.713,0,0,0-8.49,3.211,12.893,12.893,0,0,0-4.524,8.643,12.886,12.886,0,0,0,1.217,7.02.963.963,0,0,1,.079.651c-.165.788-.33,1.588-.491,2.369l-.062.3-.042.2c-.229,1.11-.465,2.258-.7,3.384a.683.683,0,0,0,.3.826h.418a9.838,9.838,0,0,1,1.172-.31l.008,0c.154-.034.318-.07.479-.109.7-.169,1.414-.338,2.105-.5l.2-.047c.719-.17,1.483-.351,2.24-.534a1.042,1.042,0,0,1,.237-.029.97.97,0,0,1,.414.1,12.829,12.829,0,0,0,5.462,1.237c.237,0,.479-.007.717-.02a12.986,12.986,0,0,0,9-4.176,12.755,12.755,0,0,0,3.526-7.933,12.855,12.855,0,0,0-3.291-9.839,12.711,12.711,0,0,0-8.452-4.358A14.669,14.669,0,0,0,9020.89-330.3Zm-.077,23.494a9.84,9.84,0,0,1-4.723-1.228,1.636,1.636,0,0,0-.785-.218,1.648,1.648,0,0,0-.445.064c-.729.2-1.477.371-2.2.537l-.022.005-.8.186a1.249,1.249,0,0,1-.251.043.107.107,0,0,1-.09-.031c-.036-.044-.025-.134.012-.318l.1-.486.031-.152c.183-.9.372-1.831.569-2.742a.986.986,0,0,0-.1-.719,10.185,10.185,0,0,1-1.224-3.321,10.167,10.167,0,0,1,3.359-9.671,9.653,9.653,0,0,1,5.763-2.492c.353-.03.705-.045,1.047-.045a10.005,10.005,0,0,1,7.724,3.529,9.89,9.89,0,0,1,2.494,5.763,10.074,10.074,0,0,1-.9,5.309,10.209,10.209,0,0,1-5.35,5.193,9.474,9.474,0,0,1-3.767.794l-.2,0Zm-4.126-16.661a1.025,1.025,0,0,0-.643.234,5.722,5.722,0,0,0-.767.735,3.2,3.2,0,0,0-.936,2.326c0,.063.009.127.013.19.007.115.015.249.028.377a7.241,7.241,0,0,0,1.421,3.359,16.529,16.529,0,0,0,3.9,3.811,8.474,8.474,0,0,0,4.46,1.755c.137.008.257.011.367.011a3.261,3.261,0,0,0,2.377-.849,6.409,6.409,0,0,0,1-1.223,1.034,1.034,0,0,0,.146-.919,1,1,0,0,0-.675-.593c-.632-.2-1.281-.381-1.91-.558l-.02-.005-.564-.159a1.077,1.077,0,0,0-.3-.044,1.007,1.007,0,0,0-.722.326c-.063.063-.125.126-.187.189l-.011.012c-.113.115-.229.235-.353.348a.967.967,0,0,1-.676.31,1.179,1.179,0,0,1-.512-.135,7.7,7.7,0,0,1-1.471-.969,13.754,13.754,0,0,1-2.651-2.656.964.964,0,0,1,.019-1.269c.063-.085.128-.168.192-.252l.018-.023c.092-.119.188-.242.275-.366a.913.913,0,0,0,.116-.935q-.125-.287-.248-.574l-.041-.094c-.261-.6-.53-1.224-.816-1.822A.913.913,0,0,0,9016.687-323.468Z" transform="translate(-7448 1428)" fill="#1f0e59"/>
  </g>
</svg>
