<svg xmlns="http://www.w3.org/2000/svg" width="254.502" height="74.42" viewBox="0 0 254.502 74.42">
  <g id="Desk" transform="translate(0 -0.116)">
    <g id="Home-Safra" transform="translate(0 0.116)">
      <g id="_01.HEADER" data-name="01.HEADER" transform="translate(0 0)">
        <g id="HEADER" transform="translate(0 0)">
          <g id="LOGO" transform="translate(0 0)">
            <path id="Fill-1" d="M82.929,23.006c.137-4.227-3.321-8.082-10.61-8.224C67.165,14.707,63.338,16.5,63,20.79c-.283,3.578.919,4.288,3.243,5.213,1.209,1.3,10.969,2.869,12.934,3.217,2.834.507,8.927,1.79,12.169,5.148,5.942,6.295,3.188,18.667-3.243,22.887-4.4,2.859-10.4,3.575-16.128,3.645-2.616.076-8.843-.858-12.661-3.645a18.114,18.114,0,0,1-7.2-13.442H62.421a7.9,7.9,0,0,0,2.191,5.365c2.328,2.436,6.163,3.217,9.693,3.072,3.538-.071,6.855-1.138,8.2-2.438a6.244,6.244,0,0,0,.211-8.786c-3.4-3.577-13.573-3.577-20.216-5.867-5.6-1.934-10.181-6.016-9.335-14.44.848-8.3,6.78-14.449,19.375-14.449,2.749,0,12.367.216,17.391,6.655,2.688,3.5,3.393,8.361,2.973,10.079Z" transform="translate(36.31 4.174)" fill="#1e2044" fill-rule="evenodd"/>
            <path id="Fill-3" d="M102.332,35.448c-2.829,1.713-6.637,1.576-9.192,2.068-3.034.578-5.17,3.148-4.31,6.3.568,2.28,2.324,3.928,6.572,3.215,5.866-.934,6.93-5.079,6.93-9.373Zm1.132,18.234A6.35,6.35,0,0,1,102.4,49.82c-3.463,3.287-6.5,5.5-12.3,5.5-7.786,0-11.6-4.427-11.32-11.938.213-5.438,2.332-10.728,11.1-12.234a39.355,39.355,0,0,0,9.969-1.782A4.144,4.144,0,0,0,102.332,25c0-2.427-1.986-3.5-6.51-3.5-5.657,0-6.366,3.5-6.5,6.3H79.987C80.135,15.425,90.6,14.278,95.822,14.278a25.605,25.605,0,0,1,9.06,1.43c3.818,1.571,6.852,4.716,6.852,10.872V47.744a6.179,6.179,0,0,0,2.19,4.572v1.366Z" transform="translate(54.887 9.753)" fill="#1e2044" fill-rule="evenodd"/>
            <path id="Fill-5" d="M100.484,20.936h5.384V16.428c0-5.785,2.9-9.651,9.331-9.651h6.158v7.436h-3.461c-1.344,0-2.129.865-2.129,2.642v4.08h5.876v6.648h-5.876V58.909h-9.9V27.583h-5.384Z" transform="translate(70.017 4.526)" fill="#1e2044" fill-rule="evenodd"/>
            <path id="Fill-7" d="M115.483,14.962h9.906V22.48h.137c.635-2.29,1.13-3.645,4.595-6.086a8.876,8.876,0,0,1,7.072-2.069V24.551c-4.237-.5-10.607-1.069-11.8,7.366V53.728h-9.906Z" transform="translate(80.468 9.706)" fill="#1e2044" fill-rule="evenodd"/>
            <path id="Fill-9" d="M152.823,35.448c-2.829,1.713-6.646,1.576-9.18,2.068-3.041.578-5.158,3.148-4.32,6.3.568,2.28,2.343,3.928,6.573,3.215,5.871-.934,6.926-5.079,6.926-9.373Zm1.144,18.234A6.281,6.281,0,0,1,152.9,49.82c-3.467,3.287-6.5,5.5-12.295,5.5-7.785,0-11.611-4.427-11.316-11.938.21-5.438,2.323-10.728,11.1-12.234a39.149,39.149,0,0,0,9.964-1.782A4.1,4.1,0,0,0,152.823,25c0-2.427-1.973-3.5-6.5-3.5-5.662,0-6.363,3.5-6.511,6.3H130.49c.134-12.371,10.595-13.517,15.836-13.517a25.572,25.572,0,0,1,9.052,1.43c3.808,1.571,6.853,4.716,6.853,10.872V47.744a6.13,6.13,0,0,0,2.2,4.572v1.366Z" transform="translate(90.075 9.753)" fill="#1e2044" fill-rule="evenodd"/>
            <path id="Fill-12" d="M36.78,42.115a10.055,10.055,0,0,0-2.8-7.009H34a4.269,4.269,0,0,1,4.164,3.981,3.514,3.514,0,0,1-1.379,3.028Zm-5.889,6.811V45.512a20.026,20.026,0,0,0,3.416-.346c-.492,2.323-1.773,3.424-3.416,3.759Zm-4.753-3.978a10.207,10.207,0,0,0,2.482.5v3.407c-1.255-.447-2.338-1.719-2.482-3.908Zm-.017-9.842h2.5v8.238a10.082,10.082,0,0,1-2.5-.653Zm-3.937-5.513a3.646,3.646,0,0,1,1.666-3.076v6.038a3.376,3.376,0,0,1-1.666-2.962Zm6.436-9.52v3.094a14.373,14.373,0,0,0-2.407.266,4.4,4.4,0,0,1,2.407-3.361Zm4.868,3.847a12.832,12.832,0,0,0-2.6-.638V19.938c1.217.4,2.246,1.658,2.6,3.982Zm-2.6,9.017V25.356a13.2,13.2,0,0,1,2.722.681c-.088,3.277-1.743,6.316-2.722,6.9Zm-4.77-7.391a12.108,12.108,0,0,1,2.5-.311v7.8h-2.5Zm8.4,17.525a17.909,17.909,0,0,1-3.632.374V35.126c1.038.24,3.634,2.766,3.634,7.712q0,.118,0,.233Zm-.907-10.033H33.5a12.206,12.206,0,0,0,2.307-5.947,11.032,11.032,0,0,1,2.123,1.66c.3.306.454.459.681.459a.485.485,0,0,0,.454-.766,5.171,5.171,0,0,1-.833-2.909,4.6,4.6,0,0,1,.379-1.685c.151-.383,0-.766-.454-.766-.379,0-.454.306-.606.536a1.991,1.991,0,0,1-1.71.992c-.327-4.137-2.419-6.164-4.577-6.723.775-1.865,2.694-3.01,5.227-3.534.379-.077.681-.23.681-.536,0-.383-.3-.536-.681-.536a12.534,12.534,0,0,0-3.029.766,14.127,14.127,0,0,1-3.937.766c-2.423,0-4.543-1.072-5.224-1.072a.521.521,0,0,0-.53.536c0,.23.152.459.606.613a5.825,5.825,0,0,1,3.9,3.138,5.606,5.606,0,0,0-2.866,2.527c-.806-1.643-1.826-2.372-3.305-2.372a2.475,2.475,0,0,0-2.574,2.373,1.475,1.475,0,0,0,1.287,1.608c.3,0,.454-.153.454-.383,0-.307-.151-.383-.151-.842a.888.888,0,0,1,.984-.842c.908,0,1.741.919,1.741,3.445v.629c-2.382,1.067-3.937,2.946-3.937,5.5a5.34,5.34,0,0,0,3.937,5.214v6.459a12.218,12.218,0,0,1-3.256-4.477c-.151-.306-.3-.689-.681-.689-.454,0-.606.46-.379,1a6.015,6.015,0,0,1,.379,2.144A3.314,3.314,0,0,1,19,41.69c-.3.306-.53.536-.53.766a.439.439,0,0,0,.454.459c.454,0,.984-.536,1.968-.536a5.279,5.279,0,0,1,2.574,1.072c.127.076.252.157.379.241v1.979c0,1.072-.454,1.761-1.363,1.761a.982.982,0,0,1-.984-1.072c0-.459.3-.612.3-.842s-.151-.383-.454-.383a1.714,1.714,0,0,0-1.212,1.838,2.316,2.316,0,0,0,2.347,2.374,3.42,3.42,0,0,0,2.538-1.064A6.134,6.134,0,0,0,28.5,50.946c-.4,2.022-1.779,3.684-3.742,3.684-.984,0-1.514-.536-1.514-1.225a1.121,1.121,0,0,1,.681-1c.379-.153.681-.23.681-.689,0-.23-.152-.536-.909-.536a2.621,2.621,0,0,0-2.5,2.68A3.148,3.148,0,0,0,24.683,57a6.549,6.549,0,0,0,4.843-2.243A8.777,8.777,0,0,0,33.769,56.7c.3,0,.606-.153.606-.459s-.3-.536-.606-.689a4.739,4.739,0,0,1-2.877-4.517v-.038a7.368,7.368,0,0,0,5.791-6.54,5.565,5.565,0,0,0,3.749-5.366c0-3.6-3.331-6.048-6.814-6.048ZM46.488,54.63c-2.65,0-4.391-1.531-4.391-3.828,0-1.914,1.287-3.446,2.8-3.446.606,0,1.135.23,1.135.842,0,.383-.151.689.227.689.227,0,.454-.23.454-.842a1.5,1.5,0,0,0-1.666-1.378h-.227a1.58,1.58,0,0,0,.151-.689,1.039,1.039,0,0,0-1.06-1.072c-.53,0-1.06.306-1.06.689a.2.2,0,0,0,.227.23c.227,0,.3-.23.682-.23a.481.481,0,0,1,.53.536c0,.536-.454.766-.833,1a4.351,4.351,0,0,0,.909,7.809L43.233,56.7c-1.514,0-2.271,1.149-3.634,3.6a1.381,1.381,0,0,0-2.726.383.349.349,0,0,0,.3.383.36.36,0,0,0,.379-.383.7.7,0,0,1,.681-.766.741.741,0,0,1,.757.842,2.332,2.332,0,0,1-.454,1.455c-1.59,2.6-3.786,3.9-5.678,3.9-1.666,0-2.65-1-2.65-1.991a1.51,1.51,0,0,1,1.438-1.684.9.9,0,0,1,.984.919c0,.459-.378.459-.378.689,0,.153.151.23.3.23.454,0,.757-.536.757-1.072a1.509,1.509,0,0,0-1.666-1.455,2.072,2.072,0,0,0-1.893,1.225,2.071,2.071,0,0,0-1.893-1.225A1.509,1.509,0,0,0,26.2,63.2c0,.536.3,1.072.757,1.072.151,0,.3-.076.3-.23,0-.23-.378-.23-.378-.689a.9.9,0,0,1,.984-.919A1.51,1.51,0,0,1,29.3,64.123c0,1-.984,1.991-2.65,1.991-1.893,0-4.089-1.3-5.678-3.9a2.331,2.331,0,0,1-.454-1.455.741.741,0,0,1,.757-.842.7.7,0,0,1,.682.766.36.36,0,0,0,.378.383.349.349,0,0,0,.3-.383,1.381,1.381,0,0,0-2.726-.383c-1.363-2.45-2.12-3.6-3.634-3.6l-1.136-1.761a4.351,4.351,0,0,0,.908-7.809c-.378-.23-.833-.459-.833-1a.481.481,0,0,1,.53-.536c.378,0,.454.23.681.23a.2.2,0,0,0,.227-.23c0-.383-.53-.689-1.06-.689a1.039,1.039,0,0,0-1.06,1.072,1.58,1.58,0,0,0,.151.689h-.227A1.5,1.5,0,0,0,12.8,48.045c0,.612.227.842.454.842.379,0,.227-.306.227-.689,0-.613.53-.842,1.136-.842,1.514,0,2.8,1.531,2.8,3.446,0,2.3-1.741,3.828-4.391,3.828a5.321,5.321,0,0,1-5.451-5.513c0-3.139,1.817-5.283,3.861-7.2l1.741-1.684a8.863,8.863,0,0,0,3.1-6.891A8.589,8.589,0,0,0,10.9,25.612,1.881,1.881,0,0,0,12.114,23.7c0-.613-.227-1-.227-1.455a1.286,1.286,0,0,1,1.287-1.455A1.106,1.106,0,0,1,14.31,21.86a.8.8,0,0,1-.833.842c-.227,0-.379,0-.379.23s.227.306.53.306a1.338,1.338,0,0,0,1.363-1.149,1.085,1.085,0,0,0,.53.153.88.88,0,0,0,.909-.919c0-.153-.076-.383-.3-.383-.152,0-.227.153-.227.306a.36.36,0,0,1-.379.383.81.81,0,0,1-.681-.536,1.938,1.938,0,0,0-1.666-1,1.891,1.891,0,0,0-1.893,1.608A8.725,8.725,0,0,0,9.54,20.329c.606-.383,1.136-.689,1.741-1.148a19.305,19.305,0,0,0,2.65-2.45L18.1,12.136c3.634-4.058,5.981-5.053,8.253-5.053,1.968,0,2.953,1,2.953,2.144A1.913,1.913,0,0,1,28.376,11a2.587,2.587,0,0,1-.665-1.316c-.076-.383-.152-.383-.227-.383-.151,0-.151.153-.151.306A2.98,2.98,0,0,0,27.74,11.2a2.1,2.1,0,0,1-.256.016c-.757,0-1.212-.383-1.212-.842a.5.5,0,0,1,.152-.383c.151-.153.076-.23,0-.23-.3,0-.606.383-.606.842,0,.536.454,1.3,1.741,1.3a2.5,2.5,0,0,0,.716-.107,2.48,2.48,0,0,0,2.96,0,2.494,2.494,0,0,0,.716.107c1.287,0,1.741-.766,1.741-1.3,0-.46-.3-.842-.606-.842-.076,0-.152.077,0,.23a.5.5,0,0,1,.152.383c0,.459-.454.842-1.212.842a2.1,2.1,0,0,1-.256-.016,2.98,2.98,0,0,0,.407-1.592c0-.153,0-.306-.151-.306-.076,0-.151,0-.227.383A2.587,2.587,0,0,1,31.135,11a1.912,1.912,0,0,1-.925-1.775c0-1.148.984-2.144,2.953-2.144,2.271,0,4.619,1,8.253,5.053L45.58,16.73a15.749,15.749,0,0,0,2.65,2.45c.606.459,1.135.766,1.741,1.148a8.721,8.721,0,0,0-1.741,1.378A1.891,1.891,0,0,0,46.337,20.1a1.937,1.937,0,0,0-1.666,1,.81.81,0,0,1-.682.536.36.36,0,0,1-.378-.383c0-.153-.076-.306-.227-.306-.227,0-.3.23-.3.383a.88.88,0,0,0,.908.919,1.086,1.086,0,0,0,.53-.153,1.338,1.338,0,0,0,1.363,1.149c.3,0,.53-.077.53-.306s-.152-.23-.379-.23a.762.762,0,0,1-.833-.842,1.106,1.106,0,0,1,1.135-1.072,1.286,1.286,0,0,1,1.287,1.455c0,.459-.227.842-.227,1.455a1.881,1.881,0,0,0,1.211,1.914,8.589,8.589,0,0,0-5.376,7.733,8.863,8.863,0,0,0,3.1,6.891l1.741,1.684c2.044,1.914,3.862,4.058,3.862,7.2a5.321,5.321,0,0,1-5.452,5.513ZM29.756,68.87a11.905,11.905,0,0,0-1.59-2.373,3,3,0,0,0,1.59-1.455,3,3,0,0,0,1.59,1.455,11.926,11.926,0,0,0-1.59,2.373Zm.766-57.435a1.86,1.86,0,0,1-1.531,0,2.434,2.434,0,0,0,.765-1.035,2.437,2.437,0,0,0,.766,1.035Zm22.63,34.389a1.084,1.084,0,0,0-.984.536,13.289,13.289,0,0,0-3.862-5.13,3.471,3.471,0,0,0,1.06.153,3.277,3.277,0,0,0,2.271-.766,1.139,1.139,0,0,0,1.136.842,1.039,1.039,0,0,0,1.136-1.148c0-.23-.076-.459-.3-.459-.454,0-.076.919-.833.919a.544.544,0,0,1-.53-.612c0-.383.227-.842.227-1.378a2.273,2.273,0,0,0-1.666-2.3,1.041,1.041,0,0,1-.833-1c0-.612.454-.689.757-.689s.53.077.53-.153-.227-.383-.681-.383a1.257,1.257,0,0,0-1.287,1.225,1.22,1.22,0,0,0,.379.919,1.562,1.562,0,0,0-1.287,1.531c0,.536.151,1.072.53,1.072.454,0,.076-.383.076-1,0-.689.606-1,1.211-1a1.7,1.7,0,0,1,1.59,1.761c0,1.148-.908,1.914-2.347,1.914a3.766,3.766,0,0,1-3.029-1.3,8.031,8.031,0,0,1,3.634-13.628,1.9,1.9,0,0,0,1.363-1.838A1.245,1.245,0,0,0,50.2,22.549c-.3,0-.53.076-.53.306s.227.23.379.23a.779.779,0,0,1,.682.842,1.219,1.219,0,0,1-1.287,1.225A1.341,1.341,0,0,1,48.078,23.7c0-1.608,1.893-2.68,3.331-3.369a11.7,11.7,0,0,1-2.726-1.608.989.989,0,0,1-.3-.766c0-.383.227-.689.53-.689a.36.36,0,0,1,.379.383c0,.23-.151.23-.151.383a.2.2,0,0,0,.227.23c.151,0,.53-.153.53-.766a.9.9,0,0,0-.984-.919,1.223,1.223,0,0,0-1.211,1.3,16.2,16.2,0,0,1-1.666-1.608l-2.423-2.68c-.681-.766-.3-2.22.681-2.22a.7.7,0,0,1,.757.689c0,.689-.681.383-.681.766a.279.279,0,0,0,.3.306,1.06,1.06,0,0,0,1.06-1.148,1.37,1.37,0,0,0-1.439-1.3,1.685,1.685,0,0,0-1.666,1.838l-.757-.842C38.538,8,35.813,6.394,33.163,6.394a4.347,4.347,0,0,0-2.423.689,12.083,12.083,0,0,1-.984-1.378,12.056,12.056,0,0,1-.984,1.378,4.348,4.348,0,0,0-2.423-.689c-2.65,0-5.376,1.608-8.707,5.283l-.757.842a1.685,1.685,0,0,0-1.666-1.838,1.37,1.37,0,0,0-1.439,1.3,1.06,1.06,0,0,0,1.06,1.148.279.279,0,0,0,.3-.306c0-.383-.681-.077-.681-.766a.7.7,0,0,1,.757-.689c.984,0,1.363,1.455.682,2.22l-2.423,2.68a16.2,16.2,0,0,1-1.666,1.608,1.223,1.223,0,0,0-1.211-1.3.9.9,0,0,0-.984.919c0,.613.378.766.53.766a.2.2,0,0,0,.227-.23c0-.153-.152-.153-.152-.383a.36.36,0,0,1,.379-.383c.3,0,.53.306.53.689a.989.989,0,0,1-.3.766A7.389,7.389,0,0,1,8.1,20.329c1.439.689,3.331,1.761,3.331,3.369a1.341,1.341,0,0,1-1.363,1.455,1.219,1.219,0,0,1-1.287-1.225.779.779,0,0,1,.681-.842c.152,0,.379,0,.379-.23s-.227-.306-.53-.306A1.245,1.245,0,0,0,8.1,23.927a1.9,1.9,0,0,0,1.363,1.838,8.071,8.071,0,0,1,6.133,7.58c0,2.756-.984,4.211-2.5,6.049a3.766,3.766,0,0,1-3.029,1.3c-1.439,0-2.347-.766-2.347-1.914a1.7,1.7,0,0,1,1.59-1.761c.606,0,1.211.306,1.211,1,0,.613-.378,1,.076,1,.378,0,.53-.536.53-1.072a1.562,1.562,0,0,0-1.287-1.531,1.22,1.22,0,0,0,.378-.919,1.257,1.257,0,0,0-1.287-1.225c-.454,0-.682.153-.682.383s.227.153.53.153.757.077.757.689a1.041,1.041,0,0,1-.833,1,2.273,2.273,0,0,0-1.666,2.3c0,.536.227,1,.227,1.378a.544.544,0,0,1-.53.612c-.757,0-.378-.919-.833-.919-.227,0-.3.23-.3.459A1.039,1.039,0,0,0,6.738,41.46a1.139,1.139,0,0,0,1.136-.842,3.277,3.277,0,0,0,2.271.766,3.471,3.471,0,0,0,1.06-.153,13.282,13.282,0,0,0-3.862,5.13,1.084,1.084,0,0,0-.984-.536,1.042,1.042,0,0,0-1.136,1.149c0,.153,0,.612.378.612.3,0,.152-.306.152-.536a.542.542,0,0,1,.606-.536c.606,0,.757.536.606,1.378a6.67,6.67,0,0,0-.076,1.225,6,6,0,0,0,6.133,6.2,10.134,10.134,0,0,0,1.514-.153l1.06,1.608a1.79,1.79,0,0,0-1.287,1.684,1.723,1.723,0,0,0,1.741,1.761c.606,0,1.06-.306,1.06-.612a.279.279,0,0,0-.3-.306c-.227,0-.227.23-.757.23a1.041,1.041,0,0,1-1.06-1.072,1.153,1.153,0,0,1,1.287-1.072c1.438,0,2.12,1.684,3.1,3.369l.984,1.685c1.59,2.756,4.164,4.364,6.284,4.364a3.647,3.647,0,0,0,.908-.077,14.92,14.92,0,0,1,2.2,3.369,14.935,14.935,0,0,1,2.2-3.369,3.647,3.647,0,0,0,.908.077c2.12,0,4.694-1.608,6.284-4.364l.984-1.685c.984-1.684,1.666-3.369,3.1-3.369a1.153,1.153,0,0,1,1.287,1.072,1.041,1.041,0,0,1-1.06,1.072c-.53,0-.53-.23-.757-.23a.279.279,0,0,0-.3.306c0,.306.454.612,1.06.612A1.723,1.723,0,0,0,45.2,58.458a1.79,1.79,0,0,0-1.287-1.684l1.06-1.608a10.137,10.137,0,0,0,1.514.153,6,6,0,0,0,6.133-6.2,6.647,6.647,0,0,0-.076-1.225c-.151-.842,0-1.378.606-1.378a.542.542,0,0,1,.606.536c0,.23-.151.536.152.536.378,0,.378-.459.378-.612a1.042,1.042,0,0,0-1.136-1.149ZM51.183,58.994c-3.331,3.446-8.253,5.9-12.947,8.192a49.721,49.721,0,0,0-8.48,4.9,49.713,49.713,0,0,0-8.48-4.9c-4.694-2.3-9.616-4.747-12.947-8.192-4.24-4.364-6.284-8.8-6.284-13.858,0-4.287,1.666-7.886,5.451-12.709A2.24,2.24,0,0,0,8.1,31.354a4.032,4.032,0,0,0-.454-1.225L5,24.31a9.4,9.4,0,0,1-1.212-3.828,3.485,3.485,0,0,1,1.59-2.6l3.786-3.445a.476.476,0,0,0,.076-.536L8.026,11.371c-.151-.306-.151-.536.076-.689,3.71-2.527,6.814-3.292,11.281-4.517,4.24-1.148,8.026-2.144,10.373-3.675C32.1,4.02,35.889,5.016,40.129,6.164c4.467,1.225,7.5,2.144,11.281,4.517.227.153.227.383.076.689L50.274,13.9a.476.476,0,0,0,.076.536l3.786,3.445a3.485,3.485,0,0,1,1.59,2.6,9.4,9.4,0,0,1-1.212,3.828l-2.65,5.819a4.027,4.027,0,0,0-.454,1.225,2.238,2.238,0,0,0,.606,1.072c4.088,4.594,5.451,8.422,5.451,12.709,0,5.053-2.044,9.494-6.284,13.858Zm3.558-26.338c-.681-.842-1.06-1.225-1.06-1.531a4.48,4.48,0,0,1,.454-1.3l2.272-5.053a10.669,10.669,0,0,0,1.287-4.441,4.275,4.275,0,0,0-1.59-3.292L52.848,14.2a.713.713,0,0,1-.151-.919l1.212-2.756a.406.406,0,0,0-.152-.536A41.231,41.231,0,0,0,41.794,4.786c-4.013-1.072-9.388-2.6-12.039-4.67-2.65,2.067-8.025,3.522-12.039,4.67A41.232,41.232,0,0,0,5.754,9.993a.406.406,0,0,0-.152.536l1.211,2.756a.714.714,0,0,1-.151.919L3.407,17.036a4.275,4.275,0,0,0-1.59,3.292A10.667,10.667,0,0,0,3.1,24.77l2.271,5.053a4.477,4.477,0,0,1,.454,1.3c0,.306-.379.689-1.06,1.531C1.363,36.943,0,40.465,0,45.135,0,51.644,3.18,56.62,6.814,60.372c3.71,3.828,8.859,6.355,13.553,8.652a47.686,47.686,0,0,1,9.388,5.513,47.688,47.688,0,0,1,9.389-5.513c4.694-2.3,9.918-4.823,13.553-8.652,3.634-3.752,6.814-8.728,6.814-15.236,0-4.67-1.363-8.192-4.77-12.48Z" transform="translate(0 -0.116)" fill="#1e2044" fill-rule="evenodd"/>
          </g>
        </g>
      </g>
    </g>
  </g>
</svg>
