<svg xmlns="http://www.w3.org/2000/svg" xmlns:xlink="http://www.w3.org/1999/xlink" width="145.62" height="38.217" viewBox="0 0 145.62 38.217">
  <defs>
    <linearGradient id="linear-gradient" y1="0.5" x2="1" y2="0.5" gradientUnits="objectBoundingBox">
      <stop offset="0" stop-color="#f2a03d"/>
      <stop offset="1" stop-color="#ae5800"/>
    </linearGradient>
    <linearGradient id="linear-gradient-4" x2="0.97" xlink:href="#linear-gradient"/>
  </defs>
  <g id="Group_2772" data-name="Group 2772" transform="translate(0 0.003)">
    <path id="Path_8831" data-name="Path 8831" d="M439.858,0l-2.919,4.7L434.019,0h-2.634V11.106H433.8V3.9l3.094,4.7h.064l3.126-4.744v7.251h2.411V0Z" transform="translate(-356.08)" fill="#1f0e59"/>
    <path id="Path_8832" data-name="Path 8832" d="M514.8,18.946q-.008.127-.024.3h-5.918a2.031,2.031,0,0,0,.721,1.246,2.162,2.162,0,0,0,1.357.42,2.688,2.688,0,0,0,1.079-.206,3.665,3.665,0,0,0,.983-.666l1.381,1.222a4.282,4.282,0,0,1-1.46,1.166,4.526,4.526,0,0,1-2.015.421,4.843,4.843,0,0,1-1.769-.317,4.088,4.088,0,0,1-1.412-.9,4.182,4.182,0,0,1-.928-1.388,4.606,4.606,0,0,1-.333-1.785v-.032a4.758,4.758,0,0,1,.309-1.714,4.358,4.358,0,0,1,.865-1.412,4.032,4.032,0,0,1,3.03-1.3,4.142,4.142,0,0,1,1.84.381A3.747,3.747,0,0,1,513.8,15.4a4.26,4.26,0,0,1,.761,1.475,6.1,6.1,0,0,1,.246,1.737v.032q0,.175-.008.3m-2.911-2.515a1.582,1.582,0,0,0-1.222-.5,1.619,1.619,0,0,0-1.23.492,2.466,2.466,0,0,0-.611,1.317h3.633a2.349,2.349,0,0,0-.571-1.309" transform="translate(-418.048 -11.553)" fill="#1f0e59"/>
    <path id="Path_8833" data-name="Path 8833" d="M569.547,23.409V22.193a5.215,5.215,0,0,1-.452.519,3.165,3.165,0,0,1-.547.44,2.722,2.722,0,0,1-.666.3,2.828,2.828,0,0,1-.825.112,2.716,2.716,0,0,1-2.134-.841,3.345,3.345,0,0,1-.754-2.316V14.905h2.412v4.732a1.908,1.908,0,0,0,.381,1.29,1.357,1.357,0,0,0,1.079.435,1.433,1.433,0,0,0,1.1-.435,1.833,1.833,0,0,0,.4-1.29V14.905h2.411v8.5Z" transform="translate(-465.683 -12.303)" fill="#1f0e59"/>
    <path id="Path_8834" data-name="Path 8834" d="M437.93,85.665a5.28,5.28,0,0,1-1.007.627,5.212,5.212,0,0,1-1.2.4,7.23,7.23,0,0,1-1.46.135A5.753,5.753,0,0,1,432,86.379a5.475,5.475,0,0,1-3-3.03,5.85,5.85,0,0,1-.428-2.237v-.032a5.767,5.767,0,0,1,1.618-4.054,5.516,5.516,0,0,1,1.825-1.238,5.937,5.937,0,0,1,2.348-.452,7.342,7.342,0,0,1,1.42.127,5.929,5.929,0,0,1,1.166.349,5.075,5.075,0,0,1,.968.539,6.577,6.577,0,0,1,.825.7l-1.555,1.793a5.89,5.89,0,0,0-1.325-.92,3.374,3.374,0,0,0-1.515-.333,3.1,3.1,0,0,0-1.293.27,3.06,3.06,0,0,0-1.023.746,3.478,3.478,0,0,0-.666,1.1,3.748,3.748,0,0,0-.238,1.34v.032a3.811,3.811,0,0,0,.238,1.349,3.529,3.529,0,0,0,.659,1.111,3.052,3.052,0,0,0,2.324,1.031,3.4,3.4,0,0,0,1.61-.349,6.251,6.251,0,0,0,1.309-.952l1.555,1.571a8.048,8.048,0,0,1-.889.825" transform="translate(-353.755 -62.185)" fill="#1f0e59"/>
    <path id="Path_8835" data-name="Path 8835" d="M502,92.927a2.485,2.485,0,0,0-1.9.73,3.209,3.209,0,0,0-.69,2.269v3.141H497v-8.5h2.412v1.714a3.534,3.534,0,0,1,1-1.4,2.433,2.433,0,0,1,1.714-.476v2.523Z" transform="translate(-410.244 -74.62)" fill="#1f0e59"/>
    <path id="Path_8836" data-name="Path 8836" d="M540.968,78.419c-.006.085-.013.185-.024.3h-5.918a2.031,2.031,0,0,0,.722,1.245,2.16,2.16,0,0,0,1.357.421,2.688,2.688,0,0,0,1.079-.206,3.672,3.672,0,0,0,.984-.666l1.38,1.222a4.281,4.281,0,0,1-1.46,1.166,4.526,4.526,0,0,1-2.015.42A4.844,4.844,0,0,1,535.3,82a4.086,4.086,0,0,1-1.412-.9,4.181,4.181,0,0,1-.928-1.388,4.605,4.605,0,0,1-.333-1.785V77.9a4.757,4.757,0,0,1,.309-1.713,4.349,4.349,0,0,1,.865-1.412,4.033,4.033,0,0,1,3.03-1.3,4.143,4.143,0,0,1,1.84.381,3.742,3.742,0,0,1,1.293,1.023,4.255,4.255,0,0,1,.762,1.475,6.1,6.1,0,0,1,.246,1.737v.032q0,.175-.008.3M538.057,75.9a1.582,1.582,0,0,0-1.222-.5,1.619,1.619,0,0,0-1.23.492,2.466,2.466,0,0,0-.611,1.317h3.633a2.35,2.35,0,0,0-.571-1.309m-2.19-3.213,1.793-2.808,2.078.9-2.031,1.9Z" transform="translate(-439.652 -57.684)" fill="#1f0e59"/>
    <path id="Path_8837" data-name="Path 8837" d="M595.046,85.282V84.071a3.808,3.808,0,0,1-1.071.984,2.966,2.966,0,0,1-1.579.386,3.777,3.777,0,0,1-1.444-.286,3.565,3.565,0,0,1-1.237-.849,4.221,4.221,0,0,1-.865-1.38,5.054,5.054,0,0,1-.325-1.88v-.032a5.056,5.056,0,0,1,.325-1.88,4.3,4.3,0,0,1,.857-1.38,3.5,3.5,0,0,1,1.23-.849,3.821,3.821,0,0,1,1.46-.285,3.048,3.048,0,0,1,1.594.378,4.246,4.246,0,0,1,1.055.882V73.7h2.412V85.282Zm.032-4.268a2.7,2.7,0,0,0-.167-.966,2.386,2.386,0,0,0-.444-.75,1.966,1.966,0,0,0-2.253-.479,2,2,0,0,0-.658.479,2.325,2.325,0,0,0-.452.743,2.693,2.693,0,0,0-.167.974v.032a2.712,2.712,0,0,0,.167.967,2.31,2.31,0,0,0,.452.751,2,2,0,0,0,.658.479,1.941,1.941,0,0,0,2.253-.479,2.387,2.387,0,0,0,.444-.751,2.7,2.7,0,0,0,.167-.967Z" transform="translate(-485.788 -60.835)" fill="#1f0e59"/>
    <path id="Path_8838" data-name="Path 8838" d="M652.326,73.7h2.538v2.142h-2.538Zm.063,3.078H654.8v8.5h-2.411Z" transform="translate(-538.452 -60.835)" fill="#1f0e59"/>
    <path id="Path_8839" data-name="Path 8839" d="M680.508,89.566a3.8,3.8,0,0,1-1.063.135,3.96,3.96,0,0,1-1.007-.119,1.794,1.794,0,0,1-.777-.421,2.017,2.017,0,0,1-.508-.785,3.526,3.526,0,0,1-.182-1.23v-4.03h-1.015V81.054h1.015V78.88h2.412v2.174h2v2.063h-2v3.633q0,.825.778.825a2.454,2.454,0,0,0,1.19-.3v1.936a3.755,3.755,0,0,1-.841.357" transform="translate(-557.956 -65.11)" fill="#1f0e59"/>
    <path id="Path_8840" data-name="Path 8840" d="M723.706,96.571a4.383,4.383,0,0,1-.968,1.4,4.582,4.582,0,0,1-1.459.952,4.759,4.759,0,0,1-1.84.349,4.81,4.81,0,0,1-1.825-.341A4.451,4.451,0,0,1,716.162,98a4.352,4.352,0,0,1-.96-1.4,4.262,4.262,0,0,1-.349-1.721v-.032a4.264,4.264,0,0,1,.349-1.721,4.391,4.391,0,0,1,.968-1.4,4.586,4.586,0,0,1,1.46-.952,4.757,4.757,0,0,1,1.84-.349,4.811,4.811,0,0,1,1.825.341,4.465,4.465,0,0,1,1.452.936,4.36,4.36,0,0,1,.96,1.4,4.265,4.265,0,0,1,.349,1.721v.032a4.264,4.264,0,0,1-.349,1.721m-2.031-1.721a2.525,2.525,0,0,0-.159-.9,2.253,2.253,0,0,0-1.174-1.261,2.133,2.133,0,0,0-.9-.19,2.239,2.239,0,0,0-.928.182,2.057,2.057,0,0,0-.69.5,2.2,2.2,0,0,0-.436.738,2.634,2.634,0,0,0-.151.9v.032a2.516,2.516,0,0,0,.159.9,2.274,2.274,0,0,0,1.166,1.261,2.114,2.114,0,0,0,.912.19,2.233,2.233,0,0,0,.928-.182,2.046,2.046,0,0,0,.69-.5,2.2,2.2,0,0,0,.436-.738,2.638,2.638,0,0,0,.151-.9Z" transform="translate(-590.064 -74.638)" fill="#1f0e59"/>
    <path id="Path_8841" data-name="Path 8841" d="M431.386,163.958V152.852h2.443v8.9h5.537v2.205Z" transform="translate(-356.081 -126.17)" fill="#1f0e59"/>
    <path id="Path_8842" data-name="Path 8842" d="M486.461,150.125H489v2.142h-2.538Zm.064,3.078h2.411v8.5h-2.411Z" transform="translate(-401.541 -123.918)" fill="#1f0e59"/>
    <path id="Path_8843" data-name="Path 8843" d="M522.242,159.352a4.3,4.3,0,0,1-.857,1.38,3.5,3.5,0,0,1-1.23.849,3.818,3.818,0,0,1-1.46.286,3.047,3.047,0,0,1-1.595-.378,4.243,4.243,0,0,1-1.055-.882v1.1h-2.412V150.126h2.412v4.289a3.814,3.814,0,0,1,1.071-.984,2.966,2.966,0,0,1,1.579-.386,3.778,3.778,0,0,1,1.444.286,3.579,3.579,0,0,1,1.238.849,4.231,4.231,0,0,1,.865,1.38,5.061,5.061,0,0,1,.325,1.88v.032a5.059,5.059,0,0,1-.325,1.88m-2.086-1.912a2.7,2.7,0,0,0-.167-.966,2.309,2.309,0,0,0-.452-.751,2,2,0,0,0-.658-.479,1.942,1.942,0,0,0-2.253.479,2.384,2.384,0,0,0-.444.751,2.7,2.7,0,0,0-.166.966v.032a2.706,2.706,0,0,0,.166.967,2.385,2.385,0,0,0,.444.751,1.967,1.967,0,0,0,2.253.479,2,2,0,0,0,.658-.479,2.33,2.33,0,0,0,.452-.743,2.69,2.69,0,0,0,.167-.975Z" transform="translate(-423.972 -123.919)" fill="#1f0e59"/>
    <path id="Path_8844" data-name="Path 8844" d="M580.956,171.8q-.008.128-.024.3h-5.918a2.032,2.032,0,0,0,.722,1.245,2.161,2.161,0,0,0,1.357.421,2.688,2.688,0,0,0,1.079-.206,3.668,3.668,0,0,0,.983-.666l1.381,1.222a4.283,4.283,0,0,1-1.46,1.166,4.526,4.526,0,0,1-2.015.421,4.843,4.843,0,0,1-1.769-.318,4.087,4.087,0,0,1-1.412-.9,4.184,4.184,0,0,1-.928-1.389,4.605,4.605,0,0,1-.333-1.785v-.032a4.759,4.759,0,0,1,.309-1.713,4.356,4.356,0,0,1,.865-1.412,4.032,4.032,0,0,1,3.03-1.3,4.142,4.142,0,0,1,1.84.381,3.747,3.747,0,0,1,1.293,1.023,4.256,4.256,0,0,1,.761,1.475,6.1,6.1,0,0,1,.246,1.737v.032q0,.175-.008.3m-2.911-2.515a1.582,1.582,0,0,0-1.222-.5,1.619,1.619,0,0,0-1.23.492,2.467,2.467,0,0,0-.611,1.317h3.633a2.35,2.35,0,0,0-.571-1.309" transform="translate(-472.659 -137.723)" fill="#1f0e59"/>
    <path id="Path_8845" data-name="Path 8845" d="M635.692,169.352a2.484,2.484,0,0,0-1.9.73,3.209,3.209,0,0,0-.69,2.269v3.141h-2.412v-8.5h2.412V168.7a3.535,3.535,0,0,1,1-1.4,2.431,2.431,0,0,1,1.714-.476v2.522Z" transform="translate(-520.596 -137.704)" fill="#1f0e59"/>
    <path id="Path_8846" data-name="Path 8846" d="M671.265,175.811v-.92a3.35,3.35,0,0,1-1.063.785,3.5,3.5,0,0,1-1.507.294,3.767,3.767,0,0,1-1.134-.167,2.663,2.663,0,0,1-.928-.5,2.394,2.394,0,0,1-.626-.817,2.575,2.575,0,0,1-.23-1.118v-.032a2.669,2.669,0,0,1,.254-1.206,2.316,2.316,0,0,1,.706-.841,3.173,3.173,0,0,1,1.079-.5,5.4,5.4,0,0,1,1.388-.167,5.935,5.935,0,0,1,1.134.1,7.1,7.1,0,0,1,.944.254v-.143a1.447,1.447,0,0,0-.46-1.158,2.041,2.041,0,0,0-1.365-.4,5.674,5.674,0,0,0-1.23.119,8.326,8.326,0,0,0-1.118.341l-.6-1.84a9.467,9.467,0,0,1,1.46-.492,7.677,7.677,0,0,1,1.84-.19,3.3,3.3,0,0,1,3.792,3.665v4.934Zm.047-3.427a3.693,3.693,0,0,0-.706-.23,3.812,3.812,0,0,0-.833-.087,2.152,2.152,0,0,0-1.222.3.989.989,0,0,0-.444.872v.032a.891.891,0,0,0,.365.762,1.562,1.562,0,0,0,.952.27,2.133,2.133,0,0,0,1.372-.412,1.316,1.316,0,0,0,.516-1.079Z" transform="translate(-549.553 -138.023)" fill="#1f0e59"/>
    <path id="Path_8847" data-name="Path 8847" d="M726.827,161.708V160.5a3.807,3.807,0,0,1-1.071.984,2.965,2.965,0,0,1-1.579.386,3.777,3.777,0,0,1-1.444-.286,3.565,3.565,0,0,1-1.238-.849,4.22,4.22,0,0,1-.865-1.38,5.053,5.053,0,0,1-.325-1.88v-.032a5.054,5.054,0,0,1,.325-1.88,4.3,4.3,0,0,1,.857-1.38,3.5,3.5,0,0,1,1.23-.849,3.817,3.817,0,0,1,1.46-.286,3.048,3.048,0,0,1,1.594.378,4.247,4.247,0,0,1,1.055.882v-4.179h2.412v11.582Zm.032-4.268a2.7,2.7,0,0,0-.167-.966,2.389,2.389,0,0,0-.444-.751,1.966,1.966,0,0,0-2.253-.479,2,2,0,0,0-.658.479,2.327,2.327,0,0,0-.452.743,2.692,2.692,0,0,0-.167.974v.032a2.71,2.71,0,0,0,.167.967,2.31,2.31,0,0,0,.452.751,2,2,0,0,0,.658.479,1.942,1.942,0,0,0,2.253-.479,2.39,2.39,0,0,0,.444-.751,2.7,2.7,0,0,0,.167-.967Z" transform="translate(-594.565 -123.919)" fill="#1f0e59"/>
    <path id="Path_8848" data-name="Path 8848" d="M790.324,173a4.381,4.381,0,0,1-.968,1.4,4.582,4.582,0,0,1-1.46.952,4.758,4.758,0,0,1-1.84.349,4.81,4.81,0,0,1-1.825-.341,4.452,4.452,0,0,1-1.451-.936,4.35,4.35,0,0,1-.96-1.4,4.262,4.262,0,0,1-.349-1.721v-.032a4.263,4.263,0,0,1,.349-1.721,4.389,4.389,0,0,1,.968-1.4,4.588,4.588,0,0,1,1.46-.952,4.757,4.757,0,0,1,1.841-.349,4.811,4.811,0,0,1,1.825.341,4.461,4.461,0,0,1,1.452.936,4.362,4.362,0,0,1,.96,1.4,4.267,4.267,0,0,1,.349,1.721v.032a4.264,4.264,0,0,1-.349,1.721m-2.031-1.721a2.526,2.526,0,0,0-.159-.9,2.254,2.254,0,0,0-1.174-1.261,2.133,2.133,0,0,0-.9-.19,2.236,2.236,0,0,0-.928.183,2.052,2.052,0,0,0-.69.5,2.2,2.2,0,0,0-.436.738,2.633,2.633,0,0,0-.151.9v.032a2.517,2.517,0,0,0,.159.9,2.274,2.274,0,0,0,1.166,1.261,2.114,2.114,0,0,0,.912.19,2.234,2.234,0,0,0,.928-.182,2.046,2.046,0,0,0,.69-.5,2.2,2.2,0,0,0,.436-.738,2.639,2.639,0,0,0,.151-.9Z" transform="translate(-645.052 -137.724)" fill="#1f0e59"/>
    <path id="Path_8849" data-name="Path 8849" d="M170.073,40.237a18.224,18.224,0,0,1-13.025-5.524,18.7,18.7,0,0,1,13.1-31.8h.07a18.663,18.663,0,0,1-.071,37.322Zm.071-33.608a14.949,14.949,0,0,0-.057,29.894h.056A14.949,14.949,0,0,0,170.2,6.629Z" transform="translate(-125.21 -2.406)" fill="#1f0e59"/>
    <path id="Path_8850" data-name="Path 8850" d="M220.743,67.405a13.85,13.85,0,0,1-6.623-2.459l2.208-3.3a10.858,10.858,0,0,0,4.562,2.037V60.7c-3.949-.919-5.96-2.285-5.96-5.366v-.05c0-2.931,2.109-4.969,5.862-5.242V48.624h2.551v1.49a11.067,11.067,0,0,1,5.175,1.938l-2.011,3.329a9.777,9.777,0,0,0-3.287-1.491v2.882c3.9.919,5.862,2.335,5.862,5.416v.05c0,3.031-2.305,4.894-5.788,5.217v2.435h-2.551Zm.172-13.738c-1.2.1-1.668.6-1.668,1.242v.05c0,.646.343,1.019,1.668,1.391Zm3.924,8.894v-.05c0-.671-.368-1.043-1.643-1.416v2.733c1.128-.124,1.643-.547,1.643-1.267" transform="translate(-176.742 -40.136)" fill="#1f0e59"/>
    <g id="Group_2773" data-name="Group 2773" transform="translate(10.106 0.497)">
      <path id="Intersection_1" data-name="Intersection 1" d="M2.272,0a2.272,2.272,0,1,0,0,4.544H20.054A20.5,20.5,0,0,1,26.3,0Z" transform="translate(0 0)" stroke="rgba(0,0,0,0)" stroke-miterlimit="10" stroke-width="1" fill="url(#linear-gradient)"/>
    </g>
    <g id="Group_2774" data-name="Group 2774" transform="translate(4.55 8.665)">
      <path id="Intersection_2" data-name="Intersection 2" d="M2.272,0a2.272,2.272,0,1,0,0,4.544H20.9A20.591,20.591,0,0,1,22.894,0Z" transform="translate(0)" stroke="rgba(0,0,0,0)" stroke-miterlimit="10" stroke-width="1" fill="url(#linear-gradient)"/>
    </g>
    <path id="Intersection_3" data-name="Intersection 3" d="M2.272,0a2.272,2.272,0,0,0,0,4.544H24.694a21.129,21.129,0,0,1-.116-2.284A20.921,20.921,0,0,1,24.71,0Z" transform="translate(0 16.833)" fill="url(#linear-gradient)"/>
    <g id="Group_2777" data-name="Group 2777" transform="translate(11.113 33.169)">
      <path id="Intersection_5" data-name="Intersection 5" d="M2.272,0a2.272,2.272,0,0,0,0,4.544H24.987A20.419,20.419,0,0,1,19.37.482C19.215.323,19.063.162,18.914,0Z" transform="translate(0 0)" stroke="rgba(0,0,0,0)" stroke-miterlimit="10" stroke-width="1" fill="url(#linear-gradient-4)"/>
    </g>
    <g id="Group_2776" data-name="Group 2776" transform="translate(5.557 25.001)">
      <path id="Intersection_4" data-name="Intersection 4" d="M2.272,0a2.272,2.272,0,0,0,0,4.544H21.8A20.42,20.42,0,0,1,19.848,0Z" transform="translate(0)" stroke="rgba(0,0,0,0)" stroke-miterlimit="10" stroke-width="1" fill="url(#linear-gradient)"/>
    </g>
    <rect id="Rectangle_1101" data-name="Rectangle 1101" width="0.698" height="37.706" transform="translate(68.102 0.123)" fill="#1f0e59"/>
  </g>
</svg>
