<svg xmlns="http://www.w3.org/2000/svg" width="254.5" height="74.42" viewBox="0 0 254.5 74.42">
  <g id="Group_6124" data-name="Group 6124" transform="translate(-1075 -1137)">
    <rect id="Rectangle_1757" data-name="Rectangle 1757" width="254.5" height="74.42" transform="translate(1075 1137)" fill="none"/>
    <path id="Logo_C6_Bank" d="M30.327,32.366A9.677,9.677,0,0,0,33.4,26.952H48.893a23.5,23.5,0,0,1-7.714,15.52,23.691,23.691,0,0,1-16.372,5.941A26.1,26.1,0,0,1,12.043,45.3a22.484,22.484,0,0,1-8.86-8.654A24.513,24.513,0,0,1,0,24.207,24.513,24.513,0,0,1,3.183,11.768a22.484,22.484,0,0,1,8.86-8.654A26.076,26.076,0,0,1,24.808,0,23.736,23.736,0,0,1,40.96,5.733a23.056,23.056,0,0,1,7.776,15.024H33.466a9.977,9.977,0,0,0-3.324-4.934,8.262,8.262,0,0,0-5.269-1.868A8.168,8.168,0,0,0,18.4,16.781,10.884,10.884,0,0,0,15.934,24.2a10.817,10.817,0,0,0,2.477,7.4,8.186,8.186,0,0,0,6.461,2.824,8.034,8.034,0,0,0,5.457-2.058ZM85.316,19.779a14.816,14.816,0,0,1,4.513,11.19,16.4,16.4,0,0,1-5.194,12.644q-5.2,4.8-13.7,4.8-8.4,0-13.661-4.817A16.153,16.153,0,0,1,52.014,31.1a26.061,26.061,0,0,1,1.444-8.434,49.033,49.033,0,0,1,4.466-9.279L65.045,1.549l15.048,0L71.668,15.518q1.262-.067,1.993-.067a16.151,16.151,0,0,1,11.653,4.327ZM75.156,35.261a5.866,5.866,0,0,0,1.626-4.293,5.99,5.99,0,0,0-1.626-4.327,6.1,6.1,0,0,0-8.432,0A5.975,5.975,0,0,0,65.1,30.968a5.858,5.858,0,0,0,1.626,4.293,6.189,6.189,0,0,0,8.432,0ZM118.04,22.109c5.346,1.582,8.722,6.312,8.722,12.426a12.243,12.243,0,0,1-3.466,8.724,11.362,11.362,0,0,1-8.521,3.607H100.2a.2.2,0,0,1-.2-.206V1.753a.2.2,0,0,1,.2-.206h12.84a10.116,10.116,0,0,1,7.651,3.1,10.565,10.565,0,0,1,3.034,7.841,10.347,10.347,0,0,1-5.685,9.618ZM122.074,42.1a10.309,10.309,0,0,0,3.046-7.571,11.155,11.155,0,0,0-3.04-8.131,10.471,10.471,0,0,0-7.863-3.159H101.642V45.192h13.132a9.73,9.73,0,0,0,7.3-3.086ZM101.64,3.221V21.57h11.4a8.737,8.737,0,0,0,6.5-2.528,9,9,0,0,0,2.544-6.552c0-5.459-3.718-9.269-9.041-9.269h-11.4Zm140.388,43.32a.2.2,0,0,1-.163.323h-1.529a.2.2,0,0,1-.167-.087L223.831,23.448l-7.216,8.484V46.658a.2.2,0,0,1-.2.208H215.2a.2.2,0,0,1-.2-.206V1.753a.2.2,0,0,1,.2-.206h1.214a.2.2,0,0,1,.2.206V29.437L240.049,1.62a.2.2,0,0,1,.155-.073h1.606a.2.2,0,0,1,.2.206.219.219,0,0,1-.048.133L224.918,22.123l17.11,24.418ZM204.74,1.547a.2.2,0,0,1,.2.206V46.66a.2.2,0,0,1-.2.206h-.559a.2.2,0,0,1-.163-.085L174.606,5.227V46.66a.2.2,0,0,1-.2.206h-1.239a.2.2,0,0,1-.2-.206V1.753a.2.2,0,0,1,.2-.206h.787a.2.2,0,0,1,.161.085L203.3,42.864V1.755a.2.2,0,0,1,.2-.206h1.241Zm-39.09,45.04a.2.2,0,0,1-.19.278h-1.287a.2.2,0,0,1-.19-.137l-5.148-13.885H137.851L132.7,46.733a.2.2,0,0,1-.19.133h-1.289a.2.2,0,0,1-.188-.28L147.761,1.68a.2.2,0,0,1,.19-.133h.783a.2.2,0,0,1,.192.135l16.723,44.905Zm-27.2-15.418h19.781L148.346,4.779l-9.89,26.391Z" transform="translate(1081 1150)"/>
  </g>
</svg>
